<svg xmlns="http://www.w3.org/2000/svg" xmlns:xlink="http://www.w3.org/1999/xlink" width="300" zoomAndPan="magnify" viewBox="0 0 224.87999 225" height="300" preserveAspectRatio="xMidYMid meet" version="1.2"><defs><clipPath id="8e25c514dd"><path d="M 48.898438 181.777344 L 124.28125 181.777344 L 124.28125 221.773438 L 48.898438 221.773438 Z M 48.898438 181.777344 "/></clipPath><clipPath id="28bb7e2fb8"><path d="M 153.277344 94 L 175.792969 94 L 175.792969 115.3125 L 153.277344 115.3125 Z M 153.277344 94 "/></clipPath><clipPath id="fb9bebfda6"><path d="M 153.277344 71.152344 L 175.792969 71.152344 L 175.792969 92.5625 L 153.277344 92.5625 Z M 153.277344 71.152344 "/></clipPath><clipPath id="b18f4a11aa"><path d="M 67 2.90625 L 164 2.90625 L 164 83 L 67 83 Z M 67 2.90625 "/></clipPath><clipPath id="4ba2bfe535"><path d="M 153.277344 48 L 175.792969 48 L 175.792969 69.8125 L 153.277344 69.8125 Z M 153.277344 48 "/></clipPath><clipPath id="7d62d2ea1d"><path d="M 153.277344 116.652344 L 175.792969 116.652344 L 175.792969 138 L 153.277344 138 Z M 153.277344 116.652344 "/></clipPath><clipPath id="01934731b0"><path d="M 67.703125 147.917969 L 82.828125 147.917969 L 82.828125 161.132812 L 67.703125 161.132812 Z M 67.703125 147.917969 "/></clipPath><clipPath id="e452e1f850"><path d="M 75.253906 147.917969 L 82.808594 161.132812 L 67.703125 161.132812 Z M 75.253906 147.917969 "/></clipPath></defs><g id="8adc943a96"><g clip-rule="nonzero" clip-path="url(#8e25c514dd)"><path style=" stroke:none;fill-rule:nonzero;fill:#ebac31;fill-opacity:1;" d="M 120.816406 202.371094 L 119.734375 202.011719 L 59.535156 182.164062 C 57.082031 181.355469 54.40625 182.683594 53.558594 185.125 L 48.898438 198.578125 L 119.21875 221.773438 L 123.824219 208.445312 C 124.246094 207.238281 124.164062 205.9375 123.59375 204.78125 C 123.039062 203.660156 122.023438 202.777344 120.816406 202.371094 "/></g><g clip-rule="nonzero" clip-path="url(#28bb7e2fb8)"><path style=" stroke:none;fill-rule:nonzero;fill:#ebac31;fill-opacity:1;" d="M 167.671875 94 C 165.898438 94 164.113281 94.578125 162.621094 95.765625 L 156.410156 100.714844 C 152.914062 103.503906 152.335938 108.625 155.125 112.121094 C 157.914062 115.621094 163.027344 116.199219 166.53125 113.410156 L 172.738281 108.460938 C 176.238281 105.667969 176.816406 100.554688 174.027344 97.054688 C 172.425781 95.046875 170.058594 94 167.671875 94 "/></g><g clip-rule="nonzero" clip-path="url(#fb9bebfda6)"><path style=" stroke:none;fill-rule:nonzero;fill:#ebac31;fill-opacity:1;" d="M 167.671875 71.191406 C 165.898438 71.191406 164.113281 71.769531 162.621094 72.957031 L 156.410156 77.90625 C 152.914062 80.695312 152.335938 85.8125 155.125 89.3125 C 157.914062 92.808594 163.027344 93.390625 166.53125 90.597656 L 172.738281 85.652344 C 176.238281 82.859375 176.816406 77.742188 174.027344 74.246094 C 172.425781 72.234375 170.058594 71.191406 167.671875 71.191406 "/></g><path style=" stroke:none;fill-rule:nonzero;fill:#ebac31;fill-opacity:1;" d="M 146.644531 85.324219 L 146.644531 75.203125 L 143.089844 75.203125 L 143.089844 83.546875 L 134.746094 83.546875 L 134.746094 87.101562 L 144.867188 87.101562 C 145.847656 87.101562 146.644531 86.304688 146.644531 85.324219 "/><path style=" stroke:none;fill-rule:nonzero;fill:#ebac31;fill-opacity:1;" d="M 84.640625 85.324219 C 84.640625 86.304688 85.4375 87.101562 86.417969 87.101562 L 96.539062 87.101562 L 96.539062 83.546875 L 88.195312 83.546875 L 88.195312 75.203125 L 84.640625 75.203125 L 84.640625 85.324219 "/><path style=" stroke:none;fill-rule:nonzero;fill:#ebac31;fill-opacity:1;" d="M 146.644531 26.871094 C 146.644531 25.890625 145.847656 25.09375 144.867188 25.09375 L 134.746094 25.09375 L 134.746094 28.652344 L 143.089844 28.652344 L 143.089844 36.996094 L 146.644531 36.996094 L 146.644531 26.871094 "/><path style=" stroke:none;fill-rule:nonzero;fill:#ebac31;fill-opacity:1;" d="M 84.640625 26.871094 L 84.640625 36.996094 L 88.195312 36.996094 L 88.195312 28.652344 L 96.539062 28.652344 L 96.539062 25.09375 L 86.417969 25.09375 C 85.4375 25.09375 84.640625 25.890625 84.640625 26.871094 "/><path style=" stroke:none;fill-rule:nonzero;fill:#ebac31;fill-opacity:1;" d="M 124.964844 35.5625 L 135.617188 35.5625 L 135.617188 46.214844 L 124.964844 46.214844 Z M 121.410156 49.769531 L 139.171875 49.769531 L 139.171875 32.007812 L 121.410156 32.007812 L 121.410156 49.769531 "/><path style=" stroke:none;fill-rule:nonzero;fill:#ebac31;fill-opacity:1;" d="M 95.621094 35.515625 L 106.363281 35.515625 L 106.363281 46.261719 L 95.621094 46.261719 Z M 92.164062 49.722656 L 109.828125 49.722656 L 109.828125 32.058594 L 92.164062 32.058594 L 92.164062 49.722656 "/><path style=" stroke:none;fill-rule:nonzero;fill:#ebac31;fill-opacity:1;" d="M 106.363281 76.667969 L 95.621094 76.667969 L 95.621094 65.921875 L 106.363281 65.921875 Z M 109.828125 62.460938 L 92.164062 62.460938 L 92.164062 80.125 L 109.828125 80.125 L 109.828125 62.460938 "/><path style=" stroke:none;fill-rule:nonzero;fill:#ebac31;fill-opacity:1;" d="M 117.375 31.894531 L 113.910156 31.894531 L 113.910156 39.132812 L 117.375 39.132812 L 117.375 31.894531 "/><path style=" stroke:none;fill-rule:nonzero;fill:#ebac31;fill-opacity:1;" d="M 113.910156 80.304688 L 117.375 80.304688 L 117.375 73.253906 L 113.910156 73.253906 L 113.910156 80.304688 "/><path style=" stroke:none;fill-rule:nonzero;fill:#ebac31;fill-opacity:1;" d="M 91.4375 57.828125 L 99.035156 57.828125 L 99.035156 54.367188 L 91.4375 54.367188 L 91.4375 57.828125 "/><path style=" stroke:none;fill-rule:nonzero;fill:#ebac31;fill-opacity:1;" d="M 113.910156 54.367188 L 102.953125 54.367188 L 102.953125 57.828125 L 113.910156 57.828125 L 113.910156 69.332031 L 117.375 69.332031 L 117.375 57.828125 L 128.328125 57.828125 L 128.328125 54.367188 L 117.375 54.367188 L 117.375 43.050781 L 113.910156 43.050781 L 113.910156 54.367188 "/><path style=" stroke:none;fill-rule:nonzero;fill:#ebac31;fill-opacity:1;" d="M 139.84375 54.367188 L 132.25 54.367188 L 132.25 57.828125 L 139.84375 57.828125 L 139.84375 54.367188 "/><path style=" stroke:none;fill-rule:nonzero;fill:#ebac31;fill-opacity:1;" d="M 130.191406 62.347656 L 121.394531 62.347656 L 121.394531 71.144531 L 125.703125 71.144531 L 125.703125 66.65625 L 130.191406 66.65625 L 130.191406 62.347656 "/><path style=" stroke:none;fill-rule:nonzero;fill:#ebac31;fill-opacity:1;" d="M 139.171875 66.65625 L 139.171875 62.347656 L 134.867188 62.347656 L 134.867188 66.65625 L 139.171875 66.65625 "/><path style=" stroke:none;fill-rule:nonzero;fill:#ebac31;fill-opacity:1;" d="M 130.375 71.144531 L 134.683594 71.144531 L 134.683594 66.835938 L 130.375 66.835938 L 130.375 71.144531 "/><path style=" stroke:none;fill-rule:nonzero;fill:#ebac31;fill-opacity:1;" d="M 130.191406 75.636719 L 130.191406 71.328125 L 125.886719 71.328125 L 125.886719 75.636719 L 130.191406 75.636719 "/><path style=" stroke:none;fill-rule:nonzero;fill:#ebac31;fill-opacity:1;" d="M 121.394531 80.125 L 125.703125 80.125 L 125.703125 75.816406 L 121.394531 75.816406 L 121.394531 80.125 "/><path style=" stroke:none;fill-rule:nonzero;fill:#ebac31;fill-opacity:1;" d="M 139.171875 71.328125 L 134.867188 71.328125 L 134.867188 75.816406 L 130.375 75.816406 L 130.375 80.125 L 139.171875 80.125 L 139.171875 71.328125 "/><path style=" stroke:none;fill-rule:nonzero;fill:#ebac31;fill-opacity:1;" d="M 113.601562 130.574219 C 113.621094 130.574219 113.640625 130.574219 113.65625 130.578125 C 114.339844 130.671875 115.019531 130.714844 115.722656 130.714844 C 116.363281 130.714844 117.003906 130.675781 117.617188 130.597656 C 125.328125 129.65625 131.148438 123.074219 131.148438 115.292969 C 131.148438 114.988281 131.136719 114.683594 131.121094 114.386719 C 131.058594 113.378906 130.191406 112.601562 129.1875 112.667969 C 128.179688 112.730469 127.414062 113.59375 127.472656 114.601562 C 127.488281 114.828125 127.492188 115.058594 127.492188 115.292969 C 127.492188 121.230469 123.058594 126.25 117.160156 126.972656 C 116.15625 127.101562 115.113281 127.089844 114.109375 126.953125 C 114.09375 126.953125 114.074219 126.949219 114.054688 126.945312 C 108.285156 126.128906 103.941406 121.125 103.941406 115.292969 C 103.941406 108.796875 109.226562 103.515625 115.722656 103.515625 C 116.800781 103.515625 117.871094 103.664062 118.90625 103.957031 C 119.875 104.234375 120.886719 103.671875 121.164062 102.699219 C 121.4375 101.730469 120.875 100.71875 119.90625 100.445312 C 118.542969 100.058594 117.136719 99.859375 115.722656 99.859375 C 107.214844 99.859375 100.289062 106.78125 100.289062 115.292969 C 100.289062 122.957031 106.011719 129.527344 113.601562 130.574219 "/><path style=" stroke:none;fill-rule:nonzero;fill:#ebac31;fill-opacity:1;" d="M 130.828125 100.183594 C 130.035156 99.5625 128.890625 99.703125 128.261719 100.496094 L 115.585938 116.648438 L 112.019531 112.179688 C 111.390625 111.394531 110.242188 111.265625 109.453125 111.894531 C 108.664062 112.523438 108.535156 113.671875 109.164062 114.460938 L 114.175781 120.730469 C 114.519531 121.167969 115.046875 121.417969 115.601562 121.417969 C 115.601562 121.417969 115.605469 121.417969 115.609375 121.417969 C 116.167969 121.417969 116.691406 121.160156 117.039062 120.722656 L 131.136719 102.75 C 131.761719 101.957031 131.625 100.808594 130.828125 100.183594 "/><path style=" stroke:none;fill-rule:nonzero;fill:#ebac31;fill-opacity:1;" d="M 92.140625 156.960938 C 91.394531 144.3125 86.878906 134.800781 78.351562 130.363281 C 74.761719 128.480469 72.675781 124.671875 73.0625 120.679688 L 75.105469 99.984375 C 75.898438 94.136719 72.78125 85.640625 67.441406 82.941406 C 66.625 82.523438 65.796875 82.273438 64.980469 82.164062 C 64.835938 82.136719 64.675781 82.125 64.5 82.125 C 62.738281 82.125 61.230469 83.445312 60.988281 85.210938 L 54.523438 134.480469 C 54.496094 134.691406 51.996094 148.574219 55.671875 159.632812 C 56.925781 163.414062 58.328125 165.59375 59.558594 167.515625 C 61.617188 170.722656 63.246094 173.285156 62.898438 180.449219 L 119.074219 198.976562 C 120.503906 190.773438 125.390625 186.566406 130.535156 182.117188 C 133.609375 179.472656 136.789062 176.722656 139.511719 172.925781 C 142.4375 168.839844 144.386719 164.21875 145.511719 160.300781 L 92.074219 160.300781 L 92.140625 156.960938 "/><g clip-rule="nonzero" clip-path="url(#b18f4a11aa)"><path style=" stroke:none;fill-rule:nonzero;fill:#ebac31;fill-opacity:1;" d="M 71.21875 82.324219 L 71.21875 13.859375 C 71.21875 9.839844 74.507812 6.566406 78.527344 6.566406 L 152.925781 6.566406 C 156.945312 6.566406 160.230469 9.839844 160.230469 13.859375 L 160.230469 48.632812 L 161.179688 47.886719 L 163.878906 45.773438 L 163.878906 13.859375 C 163.878906 7.820312 158.964844 2.90625 152.925781 2.90625 L 78.527344 2.90625 C 72.488281 2.90625 67.574219 7.820312 67.574219 13.859375 L 67.574219 80.121094 C 67.933594 80.253906 68.292969 80.375 68.65625 80.5625 C 69.578125 81.03125 70.433594 81.628906 71.21875 82.324219 "/></g><g clip-rule="nonzero" clip-path="url(#4ba2bfe535)"><path style=" stroke:none;fill-rule:nonzero;fill:#ebac31;fill-opacity:1;" d="M 156.410156 55.09375 C 152.914062 57.886719 152.335938 63.003906 155.125 66.5 C 157.914062 70.003906 163.027344 70.578125 166.53125 67.789062 L 172.738281 62.839844 C 176.238281 60.050781 176.816406 54.933594 174.027344 51.433594 C 172.425781 49.425781 170.058594 48.382812 167.671875 48.382812 C 165.898438 48.382812 164.113281 48.957031 162.621094 50.148438 L 156.410156 55.09375 "/></g><path style=" stroke:none;fill-rule:nonzero;fill:#ebac31;fill-opacity:1;" d="M 160.230469 146.515625 C 160.230469 150.539062 156.945312 153.824219 152.925781 153.824219 L 95.214844 153.824219 C 95.1875 153.824219 95.160156 153.824219 95.132812 153.835938 L 95.347656 157.46875 L 152.925781 157.46875 C 158.964844 157.46875 163.878906 152.554688 163.878906 146.515625 L 163.878906 140.757812 L 160.230469 140.757812 L 160.230469 146.515625 "/><g clip-rule="nonzero" clip-path="url(#7d62d2ea1d)"><path style=" stroke:none;fill-rule:nonzero;fill:#ebac31;fill-opacity:1;" d="M 168.589844 116.859375 C 168.28125 116.824219 167.972656 116.808594 167.664062 116.808594 C 165.835938 116.808594 164.074219 117.421875 162.621094 118.574219 L 156.410156 123.527344 C 152.914062 126.316406 152.335938 131.429688 155.125 134.933594 C 157.914062 138.429688 163.027344 139.007812 166.53125 136.21875 L 172.738281 131.269531 C 176.238281 128.480469 176.816406 123.363281 174.027344 119.867188 C 172.675781 118.171875 170.746094 117.101562 168.589844 116.859375 "/></g><g clip-rule="nonzero" clip-path="url(#01934731b0)"><g clip-rule="nonzero" clip-path="url(#e452e1f850)"><path style=" stroke:none;fill-rule:nonzero;fill:#ebac31;fill-opacity:1;" d="M 67.703125 147.917969 L 82.828125 147.917969 L 82.828125 161.132812 L 67.703125 161.132812 Z M 67.703125 147.917969 "/></g></g></g></svg>